<svg width="141" height="24" viewBox="0 0 141 24" fill="none" xmlns="http://www.w3.org/2000/svg">
<path d="M11.8267 23.8123V19.1795C16.7255 19.1795 20.5042 14.3368 18.6156 9.21222C17.9198 7.28664 16.4074 5.77016 14.4869 5.07257C12.2522 4.23005 9.74782 4.53658 7.7809 5.89338C5.81399 7.25018 4.6332 9.48571 4.61911 11.8795H0C0 4.15813 7.48866 -1.94849 15.6757 0.579261C19.2467 1.70391 22.0434 4.50856 23.1644 8.08925C25.684 16.3023 19.595 23.8123 11.8267 23.8123Z" fill="#2485FD"/>
<path d="M11.8802 19.227H7.25621V14.6679H11.8802V19.227ZM7.25621 22.8047H3.7534V19.227H7.25621V22.8047ZM3.7534 19.227H0.814701V16.2814H3.7534V19.227ZM42.2153 6.95201C40.8846 6.03962 39.1332 5.54401 37.1707 5.54401H32.8984V19.2213H37.1721C39.1341 19.2213 40.8156 18.7304 42.2168 17.7486C42.982 17.1913 43.5863 16.4413 43.9682 15.5746C44.3902 14.6622 44.5984 13.5401 44.5984 12.3475C44.5984 11.1549 44.3888 10.0327 43.9682 9.19074C43.5461 8.14459 42.9862 7.4434 42.2153 6.95201ZM35.4207 7.8644H36.7515C38.223 7.8644 39.4834 8.146 40.4639 8.77678C41.5148 9.40757 42.0114 10.6072 42.0114 12.3545C42.0114 14.1018 41.4487 15.3705 40.4639 16.0716C39.5538 16.6348 38.3623 16.984 36.8205 16.984H35.4207V7.8644ZM47.6102 5.33985C47.2167 5.32932 46.8363 5.48221 46.5594 5.76225C46.2355 6.01278 46.0526 6.40461 46.0684 6.81403C46.0684 7.62741 46.7272 8.2868 47.5399 8.2868C48.3526 8.2868 49.0114 7.62741 49.0114 6.81403C49.0217 6.42017 48.869 6.03954 48.5893 5.76225C48.3797 5.48065 48.0266 5.33985 47.6046 5.33985H47.6102ZM46.3385 9.54837H48.7905V19.158H46.3484V9.54837H46.3385ZM57.5574 10.3932C56.854 9.76238 56.0099 9.34139 55.1054 9.34139C53.8562 9.31385 52.6559 9.82704 51.8122 10.7494C50.9371 11.6771 50.4595 12.9107 50.4814 14.1863C50.4814 15.5197 50.9034 16.7109 51.7475 17.6233C52.5915 18.5357 53.7085 18.9566 55.0407 18.9566C55.898 18.9701 56.7355 18.6988 57.4223 18.1851V18.3949C57.4223 19.1664 57.2127 19.8029 56.7921 20.2253C56.3715 20.6477 55.8074 20.856 55.0407 20.856C53.9153 20.856 53.2189 20.4336 52.3791 19.2425L50.691 20.856L50.7614 20.9264C51.1116 21.4178 51.6715 21.912 52.3721 22.3992C53.0726 22.8864 53.9828 23.1032 55.0336 23.1032C56.5051 23.1032 57.6263 22.6808 58.4661 21.7698C59.3059 20.8589 59.7969 19.7353 59.7969 18.2625V9.54837H57.4181V10.3932H57.5588H57.5574ZM56.9285 16.0745C56.5065 16.5659 55.9438 16.7785 55.2404 16.7785C54.5371 16.7785 53.9744 16.5687 53.5523 16.0745C53.1303 15.5803 52.9221 14.9481 52.9221 14.1807C52.9221 13.4133 53.1458 12.7741 53.5678 12.2827C53.9898 11.7913 54.5525 11.5787 55.2559 11.5787C55.9593 11.5787 56.522 11.7885 56.944 12.2827C57.366 12.7769 57.5742 13.4091 57.5742 14.1765C57.5742 14.9438 57.3646 15.5845 56.944 16.0702L56.9285 16.0745ZM62.0575 9.54696H64.5095V19.1566H62.0421V9.54837L62.0575 9.54696ZM63.2336 5.33985C62.8404 5.33009 62.4605 5.48212 62.1824 5.76046C61.9043 6.0388 61.7524 6.4191 61.7621 6.81262C61.7621 7.62601 62.4209 8.28539 63.2336 8.28539C64.0463 8.28539 64.7051 7.62601 64.7051 6.81262C64.7148 6.41885 64.5627 6.03832 64.2843 5.75994C64.0059 5.48155 63.6256 5.32969 63.2322 5.33985H63.2336ZM69.7454 6.95201H67.3666V9.54837H65.9599V11.7223H67.3666V15.7211C67.3666 16.9883 67.648 17.895 68.1375 18.3864C68.6271 18.8778 69.5443 19.158 70.7302 19.158C71.1286 19.1696 71.5273 19.146 71.9217 19.0876H72.0624V16.9122L71.2183 16.9826C70.6556 16.9826 70.2336 16.9122 70.0929 16.701C69.8833 16.4912 69.8116 16.0702 69.8116 15.4338V11.7927H72.0539V9.61736H69.8186L69.7454 6.95201ZM83.336 5.54401H85.788V19.2213H83.3389V5.55245L83.336 5.54401ZM110.242 15.7929C109.883 16.2076 109.484 16.585 109.05 16.9193C108.668 17.1508 108.23 17.2722 107.784 17.2699C107.12 17.2641 106.488 16.982 106.04 16.4912C105.549 15.928 105.336 15.2987 105.336 14.4567C105.336 13.6147 105.546 12.9839 106.04 12.4221C106.471 11.9052 107.119 11.6198 107.791 11.6505C108.562 11.6505 109.402 12.1419 110.102 12.9839L111.713 11.4351C110.662 10.1017 109.331 9.47093 107.719 9.47093C106.388 9.47093 105.267 9.96232 104.287 10.9437C103.369 11.9067 102.864 13.1908 102.88 14.5214C102.88 15.9294 103.371 17.1868 104.287 18.0992C105.168 19.0584 106.417 19.5944 107.719 19.5719C109.471 19.5719 110.872 18.8004 111.852 17.398L110.242 15.7844V15.7929ZM120.12 10.9451C119.751 10.459 119.268 10.072 118.713 9.8187C118.077 9.52396 117.382 9.37944 116.682 9.3963C115.351 9.3963 114.23 9.8877 113.388 10.8691C112.592 11.8892 112.172 13.1526 112.197 14.4468C112.197 15.9196 112.619 17.1122 113.528 18.0245C114.436 18.9369 115.559 19.4326 117.031 19.4326C118.641 19.4326 119.973 18.8018 121.024 17.4684L121.095 17.398L119.484 15.8492C119.343 16.059 119.134 16.1998 118.921 16.4124C118.722 16.6221 118.483 16.7893 118.218 16.9038C117.853 17.1036 117.442 17.2009 117.026 17.1854C116.416 17.1942 115.821 16.9957 115.338 16.6222C114.916 16.2716 114.708 15.7774 114.635 15.1494H121.081V14.237C121.096 13.615 121.001 12.9952 120.799 12.4066C120.697 11.8628 120.454 11.3552 120.096 10.9338L120.12 10.9451ZM114.866 13.1951C114.973 12.7706 115.19 12.382 115.496 12.0687C115.83 11.7347 116.29 11.5565 116.762 11.5773C117.325 11.5773 117.813 11.7181 118.093 12.0687C118.374 12.3503 118.515 12.7727 118.584 13.1951H114.866ZM129.438 10.3185C128.735 9.68776 127.687 9.40616 126.426 9.40616C125.655 9.42802 124.896 9.59521 124.187 9.89896C123.556 10.2496 122.921 10.7438 122.576 11.4478L124.123 12.9205C124.754 11.8688 125.454 11.5125 126.435 11.5125C126.893 11.5004 127.341 11.6499 127.701 11.9349C128.025 12.1855 128.208 12.5773 128.192 12.9867V13.4781C127.628 13.2876 127.036 13.1924 126.44 13.1965C125.249 13.1965 124.268 13.4781 123.497 14.0413C122.726 14.6045 122.372 15.4493 122.372 16.4265C122.372 17.3388 122.653 18.04 123.282 18.6004C123.911 19.1608 124.689 19.372 125.593 19.372C126.498 19.372 127.345 19.0214 128.186 18.3864V19.158H130.568V12.9853C130.568 11.8589 130.217 10.9507 129.442 10.32L129.438 10.3185ZM125.169 15.5099C125.45 15.3001 125.799 15.2283 126.294 15.2283C126.916 15.2492 127.53 15.3675 128.116 15.5788V16.4912C127.536 17.0019 126.786 17.2771 126.014 17.2628C125.592 17.2628 125.243 17.1924 125.029 16.9812C124.815 16.77 124.679 16.5588 124.679 16.2772C124.729 15.9632 124.907 15.6838 125.17 15.5056L125.169 15.5099ZM139.876 10.4593C139.173 9.68776 138.265 9.33294 137.074 9.33294C136.093 9.33294 135.322 9.61454 134.763 10.1777V9.61454H132.38V19.2242H134.832V13.8963C134.832 13.1923 134.972 12.5629 135.322 12.1433C135.67 11.7283 136.188 11.4958 136.729 11.5125C137.217 11.4888 137.686 11.6977 137.995 12.0757C138.324 12.5241 138.497 13.0683 138.486 13.6245V19.2354H140.927V13.6161C140.857 12.2832 140.506 11.2309 139.876 10.4593ZM80.327 10.3185C79.6236 9.68776 78.5756 9.40616 77.3152 9.40616C76.5435 9.42722 75.7827 9.59394 75.0728 9.89755C74.4426 10.2481 73.8067 10.7424 73.4621 11.4464L75.0095 12.9191C75.6397 11.8673 76.3403 11.5111 77.3208 11.5111C77.7792 11.499 78.2274 11.6485 78.5869 11.9335C78.9108 12.1841 79.0937 12.5759 79.0778 12.9853V13.4767C78.5137 13.2862 77.9218 13.191 77.3264 13.1951C76.1354 13.1951 75.1544 13.4767 74.3835 14.0399C73.6126 14.6031 73.2581 15.4479 73.2581 16.4251C73.2581 17.3374 73.5394 18.0386 74.1683 18.599C74.7971 19.1594 75.575 19.3706 76.4795 19.3706C77.3841 19.3706 78.231 19.02 79.0722 18.385V19.1566H81.4538V12.9853C81.4538 11.8589 81.0318 10.9507 80.3284 10.32L80.327 10.3185ZM75.9844 15.5099C76.2657 15.3001 76.6146 15.2283 77.1098 15.2283C77.7316 15.2492 78.3463 15.3675 78.9315 15.5788V16.4912C78.3517 17.0019 77.602 17.2771 76.8298 17.2628C76.4078 17.2628 76.0589 17.1924 75.8451 16.9812C75.6313 16.77 75.4948 16.5588 75.4948 16.2772C75.5995 15.9869 75.7672 15.7234 75.9858 15.5056L75.9844 15.5099ZM94.5549 19.434C91.72 19.4351 89.1636 17.7268 88.0779 15.1056C86.9923 12.4845 87.5912 9.46693 89.5954 7.46016C91.5995 5.45339 94.6142 4.85273 97.2334 5.93831C99.8526 7.02388 101.56 9.58186 101.56 12.4193C101.547 16.2865 98.4187 19.4185 94.5549 19.434ZM94.5549 7.79118C92.7121 7.78833 91.0492 8.89701 90.3418 10.6001C89.6344 12.3031 90.0219 14.265 91.3235 15.5706C92.625 16.8762 94.5843 17.2682 96.2874 16.5638C97.9905 15.8595 99.1018 14.1975 99.1029 12.3531C99.1055 11.1434 98.6267 9.98246 97.7721 9.12693C96.9176 8.2714 95.7579 7.79175 94.5493 7.794L94.5549 7.79118Z" fill="#2485FD"/>
</svg>
